<?xml version="1.0" encoding="UTF-8" standalone="no"?>
<!DOCTYPE svg PUBLIC "-//W3C//DTD SVG 1.1//EN"
 "http://www.w3.org/Graphics/SVG/1.1/DTD/svg11.dtd">
<!-- Generated by graphviz version 2.26.3 (20100126.1600)
 -->
<!-- Title: controllers_diagram Pages: 1 -->
<svg width="946pt" height="691pt"
 viewBox="0.00 0.00 946.00 691.00" xmlns="http://www.w3.org/2000/svg" xmlns:xlink="http://www.w3.org/1999/xlink">
<g id="graph1" class="graph" transform="scale(1 1) rotate(0) translate(4 687)">
<title>controllers_diagram</title>
<polygon fill="white" stroke="white" points="-4,5 -4,-687 943,-687 943,5 -4,5"/>
<!-- _diagram_info -->
<g id="node1" class="node"><title>_diagram_info</title>
<text text-anchor="start" x="695" y="-666.3" font-family="Times Roman,serif" font-size="13.00">Controllers diagram</text>
<text text-anchor="start" x="695" y="-649.3" font-family="Times Roman,serif" font-size="13.00">Date: Sep 24 2012 &#45; 11:12</text>
<text text-anchor="start" x="695" y="-632.3" font-family="Times Roman,serif" font-size="13.00">Migration version: 20120919144649</text>
<text text-anchor="start" x="695" y="-615.3" font-family="Times Roman,serif" font-size="13.00">Generated by RailRoady 1.1.0</text>
<text text-anchor="start" x="695" y="-598.3" font-family="Times Roman,serif" font-size="13.00">http://railroady.prestonlee.com</text>
</g>
<!-- BaxsController -->
<g id="node2" class="node"><title>BaxsController</title>
<polyline fill="none" stroke="black" points="13,-378.467 236,-378.467 "/>
<path fill="none" stroke="black" d="M236,-378.467C242,-378.467 248,-384.467 248,-390.467"/>
<polyline fill="none" stroke="black" points="248,-390.467 248,-504.467 "/>
<path fill="none" stroke="black" d="M248,-504.467C248,-510.467 242,-516.467 236,-516.467"/>
<polyline fill="none" stroke="black" points="236,-516.467 13,-516.467 "/>
<path fill="none" stroke="black" d="M13,-516.467C7,-516.467 1,-510.467 1,-504.467"/>
<polyline fill="none" stroke="black" points="1,-504.467 1,-390.467 "/>
<path fill="none" stroke="black" d="M1,-390.467C1,-384.467 7,-378.467 13,-378.467"/>
<text text-anchor="middle" x="124.5" y="-499.867" font-family="Times Roman,serif" font-size="14.00">BaxsController</text>
<polyline fill="none" stroke="black" points="1,-490.467 248,-490.467 "/>
<text text-anchor="start" x="9" y="-473.867" font-family="Times Roman,serif" font-size="14.00">_one_time_conditions_valid_102?</text>
<text text-anchor="start" x="9" y="-455.867" font-family="Times Roman,serif" font-size="14.00">index</text>
<text text-anchor="start" x="9" y="-437.867" font-family="Times Roman,serif" font-size="14.00">show</text>
<polyline fill="none" stroke="black" points="1,-428.467 248,-428.467 "/>
<polyline fill="none" stroke="black" points="1,-404.467 248,-404.467 "/>
<text text-anchor="start" x="9" y="-387.867" font-family="Times Roman,serif" font-size="14.00">_layout</text>
</g>
<!-- ArribosBauxitasController -->
<g id="node3" class="node"><title>ArribosBauxitasController</title>
<polyline fill="none" stroke="black" points="498.333,-13.3576 668.333,-13.3576 "/>
<path fill="none" stroke="black" d="M668.333,-13.3576C674.333,-13.3576 680.333,-19.3576 680.333,-25.3576"/>
<polyline fill="none" stroke="black" points="680.333,-25.3576 680.333,-157.358 "/>
<path fill="none" stroke="black" d="M680.333,-157.358C680.333,-163.358 674.333,-169.358 668.333,-169.358"/>
<polyline fill="none" stroke="black" points="668.333,-169.358 498.333,-169.358 "/>
<path fill="none" stroke="black" d="M498.333,-169.358C492.333,-169.358 486.333,-163.358 486.333,-157.358"/>
<polyline fill="none" stroke="black" points="486.333,-157.358 486.333,-25.3576 "/>
<path fill="none" stroke="black" d="M486.333,-25.3576C486.333,-19.3576 492.333,-13.3576 498.333,-13.3576"/>
<text text-anchor="middle" x="583.333" y="-152.758" font-family="Times Roman,serif" font-size="14.00">ArribosBauxitasController</text>
<polyline fill="none" stroke="black" points="486.333,-143.358 680.333,-143.358 "/>
<text text-anchor="start" x="494.333" y="-126.758" font-family="Times Roman,serif" font-size="14.00">create</text>
<text text-anchor="start" x="494.333" y="-108.758" font-family="Times Roman,serif" font-size="14.00">destroy</text>
<text text-anchor="start" x="494.333" y="-90.7576" font-family="Times Roman,serif" font-size="14.00">index</text>
<text text-anchor="start" x="494.333" y="-72.7576" font-family="Times Roman,serif" font-size="14.00">update</text>
<polyline fill="none" stroke="black" points="486.333,-63.3576 680.333,-63.3576 "/>
<polyline fill="none" stroke="black" points="486.333,-39.3576 680.333,-39.3576 "/>
<text text-anchor="start" x="494.333" y="-22.7576" font-family="Times Roman,serif" font-size="14.00">_layout</text>
</g>
<!-- DescargasController -->
<g id="node4" class="node"><title>DescargasController</title>
<polyline fill="none" stroke="black" points="70.3306,-1.5 202.331,-1.5 "/>
<path fill="none" stroke="black" d="M202.331,-1.5C208.331,-1.5 214.331,-7.5 214.331,-13.5"/>
<polyline fill="none" stroke="black" points="214.331,-13.5 214.331,-163.5 "/>
<path fill="none" stroke="black" d="M214.331,-163.5C214.331,-169.5 208.331,-175.5 202.331,-175.5"/>
<polyline fill="none" stroke="black" points="202.331,-175.5 70.3306,-175.5 "/>
<path fill="none" stroke="black" d="M70.3306,-175.5C64.3306,-175.5 58.3306,-169.5 58.3306,-163.5"/>
<polyline fill="none" stroke="black" points="58.3306,-163.5 58.3306,-13.5 "/>
<path fill="none" stroke="black" d="M58.3306,-13.5C58.3306,-7.5 64.3306,-1.5 70.3306,-1.5"/>
<text text-anchor="middle" x="136.331" y="-158.9" font-family="Times Roman,serif" font-size="14.00">DescargasController</text>
<polyline fill="none" stroke="black" points="58.3306,-149.5 214.331,-149.5 "/>
<text text-anchor="start" x="66.3306" y="-132.9" font-family="Times Roman,serif" font-size="14.00">create</text>
<text text-anchor="start" x="66.3306" y="-114.9" font-family="Times Roman,serif" font-size="14.00">destroy</text>
<text text-anchor="start" x="66.3306" y="-96.9" font-family="Times Roman,serif" font-size="14.00">index</text>
<text text-anchor="start" x="66.3306" y="-78.9" font-family="Times Roman,serif" font-size="14.00">show</text>
<text text-anchor="start" x="66.3306" y="-60.9" font-family="Times Roman,serif" font-size="14.00">update</text>
<polyline fill="none" stroke="black" points="58.3306,-51.5 214.331,-51.5 "/>
<polyline fill="none" stroke="black" points="58.3306,-27.5 214.331,-27.5 "/>
<text text-anchor="start" x="66.3306" y="-10.9" font-family="Times Roman,serif" font-size="14.00">_layout</text>
</g>
<!-- ApplicationController -->
<g id="node5" class="node"><title>ApplicationController</title>
<polyline fill="none" stroke="black" points="251.253,-211.146 465.253,-211.146 "/>
<path fill="none" stroke="black" d="M465.253,-211.146C471.253,-211.146 477.253,-217.146 477.253,-223.146"/>
<polyline fill="none" stroke="black" points="477.253,-223.146 477.253,-357.146 "/>
<path fill="none" stroke="black" d="M477.253,-357.146C477.253,-363.146 471.253,-369.146 465.253,-369.146"/>
<polyline fill="none" stroke="black" points="465.253,-369.146 251.253,-369.146 "/>
<path fill="none" stroke="black" d="M251.253,-369.146C245.253,-369.146 239.253,-363.146 239.253,-357.146"/>
<polyline fill="none" stroke="black" points="239.253,-357.146 239.253,-223.146 "/>
<path fill="none" stroke="black" d="M239.253,-223.146C239.253,-217.146 245.253,-211.146 251.253,-211.146"/>
<text text-anchor="middle" x="358.253" y="-352.546" font-family="Times Roman,serif" font-size="14.00">ApplicationController</text>
<polyline fill="none" stroke="black" points="239.253,-343.146 477.253,-343.146 "/>
<text text-anchor="start" x="247.253" y="-326.546" font-family="Times Roman,serif" font-size="14.00">_one_time_conditions_valid_44?</text>
<text text-anchor="start" x="247.253" y="-308.546" font-family="Times Roman,serif" font-size="14.00">_one_time_conditions_valid_48?</text>
<text text-anchor="start" x="247.253" y="-290.546" font-family="Times Roman,serif" font-size="14.00">_one_time_conditions_valid_50?</text>
<text text-anchor="start" x="247.253" y="-272.546" font-family="Times Roman,serif" font-size="14.00">_one_time_conditions_valid_52?</text>
<polyline fill="none" stroke="black" points="239.253,-263.146 477.253,-263.146 "/>
<text text-anchor="start" x="247.253" y="-246.546" font-family="Times Roman,serif" font-size="14.00">asignar_variables_globales</text>
<polyline fill="none" stroke="black" points="239.253,-237.146 477.253,-237.146 "/>
<text text-anchor="start" x="247.253" y="-220.546" font-family="Times Roman,serif" font-size="14.00">_layout</text>
</g>
<!-- ApplicationController&#45;&gt;BaxsController -->
<g id="edge2" class="edge"><title>ApplicationController&#45;&gt;BaxsController</title>
<path fill="none" stroke="black" d="M240.692,-369.267C236.144,-372.328 231.598,-375.388 227.081,-378.428"/>
</g>
<!-- ApplicationController&#45;&gt;ArribosBauxitasController -->
<g id="edge4" class="edge"><title>ApplicationController&#45;&gt;ArribosBauxitasController</title>
<path fill="none" stroke="black" d="M447.857,-211.008C463.304,-197.366 479.353,-183.192 494.772,-169.574"/>
</g>
<!-- ApplicationController&#45;&gt;DescargasController -->
<g id="edge6" class="edge"><title>ApplicationController&#45;&gt;DescargasController</title>
<path fill="none" stroke="black" d="M271.18,-211.029C252.48,-194.037 232.829,-176.182 214.492,-159.52"/>
</g>
<!-- BaxGabarrasController -->
<g id="node6" class="node"><title>BaxGabarrasController</title>
<polyline fill="none" stroke="black" points="513.644,-390.553 664.644,-390.553 "/>
<path fill="none" stroke="black" d="M664.644,-390.553C670.644,-390.553 676.644,-396.553 676.644,-402.553"/>
<polyline fill="none" stroke="black" points="676.644,-402.553 676.644,-498.553 "/>
<path fill="none" stroke="black" d="M676.644,-498.553C676.644,-504.553 670.644,-510.553 664.644,-510.553"/>
<polyline fill="none" stroke="black" points="664.644,-510.553 513.644,-510.553 "/>
<path fill="none" stroke="black" d="M513.644,-510.553C507.644,-510.553 501.644,-504.553 501.644,-498.553"/>
<polyline fill="none" stroke="black" points="501.644,-498.553 501.644,-402.553 "/>
<path fill="none" stroke="black" d="M501.644,-402.553C501.644,-396.553 507.644,-390.553 513.644,-390.553"/>
<text text-anchor="middle" x="589.144" y="-493.953" font-family="Times Roman,serif" font-size="14.00">BaxGabarrasController</text>
<polyline fill="none" stroke="black" points="501.644,-484.553 676.644,-484.553 "/>
<text text-anchor="start" x="509.644" y="-467.953" font-family="Times Roman,serif" font-size="14.00">index</text>
<text text-anchor="start" x="509.644" y="-449.953" font-family="Times Roman,serif" font-size="14.00">show</text>
<polyline fill="none" stroke="black" points="501.644,-440.553 676.644,-440.553 "/>
<polyline fill="none" stroke="black" points="501.644,-416.553 676.644,-416.553 "/>
<text text-anchor="start" x="509.644" y="-399.953" font-family="Times Roman,serif" font-size="14.00">_layout</text>
</g>
<!-- ApplicationController&#45;&gt;BaxGabarrasController -->
<g id="edge8" class="edge"><title>ApplicationController&#45;&gt;BaxGabarrasController</title>
<path fill="none" stroke="black" d="M472.007,-369.174C482.252,-376.292 492.514,-383.421 502.472,-390.339"/>
</g>
</g>
</svg>
