<?xml version="1.0" encoding="UTF-8" standalone="no"?>
<!DOCTYPE svg PUBLIC "-//W3C//DTD SVG 1.1//EN"
 "http://www.w3.org/Graphics/SVG/1.1/DTD/svg11.dtd">
<!-- Generated by graphviz version 2.26.3 (20100126.1600)
 -->
<!-- Title: models_diagram Pages: 1 -->
<svg width="1025pt" height="472pt"
 viewBox="0.00 0.00 1025.00 472.00" xmlns="http://www.w3.org/2000/svg" xmlns:xlink="http://www.w3.org/1999/xlink">
<g id="graph1" class="graph" transform="scale(1 1) rotate(0) translate(4 468)">
<title>models_diagram</title>
<polygon fill="white" stroke="white" points="-4,5 -4,-468 1022,-468 1022,5 -4,5"/>
<!-- _diagram_info -->
<g id="node1" class="node"><title>_diagram_info</title>
<text text-anchor="start" x="8" y="-447.8" font-family="Times Roman,serif" font-size="13.00">Models diagram</text>
<text text-anchor="start" x="8" y="-430.8" font-family="Times Roman,serif" font-size="13.00">Date: Sep 24 2012 &#45; 11:11</text>
<text text-anchor="start" x="8" y="-413.8" font-family="Times Roman,serif" font-size="13.00">Migration version: 20120919144649</text>
<text text-anchor="start" x="8" y="-396.8" font-family="Times Roman,serif" font-size="13.00">Generated by RailRoady 1.1.0</text>
<text text-anchor="start" x="8" y="-379.8" font-family="Times Roman,serif" font-size="13.00">http://railroady.prestonlee.com</text>
</g>
<!-- OperationsAd -->
<g id="node2" class="node"><title>OperationsAd</title>
<polygon fill="none" stroke="black" points="378,-435 268,-435 268,-399 378,-399 378,-435"/>
<text text-anchor="middle" x="323" y="-413.4" font-family="Times Roman,serif" font-size="14.00">OperationsAd</text>
</g>
<!-- DescargaBauxita -->
<g id="node3" class="node"><title>DescargaBauxita</title>
<ellipse fill="none" stroke="black" cx="578" cy="-19" rx="94.7523" ry="18.3848"/>
<text text-anchor="middle" x="578" y="-15.4" font-family="Times Roman,serif" font-size="14.00">DescargaBauxita</text>
</g>
<!-- EmpresaMaritima -->
<g id="node4" class="node"><title>EmpresaMaritima</title>
<ellipse fill="none" stroke="black" cx="493" cy="-417" rx="96.8736" ry="18.3848"/>
<text text-anchor="middle" x="493" y="-413.4" font-family="Times Roman,serif" font-size="14.00">EmpresaMaritima</text>
</g>
<!-- Remolcador -->
<g id="node11" class="node"><title>Remolcador</title>
<ellipse fill="none" stroke="black" cx="397" cy="-315" rx="67.8823" ry="18.3848"/>
<text text-anchor="middle" x="397" y="-311.4" font-family="Times Roman,serif" font-size="14.00">Remolcador</text>
</g>
<!-- EmpresaMaritima&#45;&gt;Remolcador -->
<g id="edge4" class="edge"><title>EmpresaMaritima&#45;&gt;Remolcador</title>
<path fill="none" stroke="#e7f06a" d="M470.24,-392.818C455.417,-377.068 436.105,-356.55 421.034,-340.536"/>
<ellipse fill="none" stroke="#e7f06a" cx="473.096" cy="-395.852" rx="4.00002" ry="4.00002"/>
<polygon fill="#e7f06a" stroke="#e7f06a" points="420.868,-340.36 417.291,-329.994 417.441,-336.719 414.014,-333.078 414.014,-333.078 414.014,-333.078 417.441,-336.719 410.737,-336.162 420.868,-340.36 420.868,-340.36"/>
</g>
<!-- Gabarra -->
<g id="node14" class="node"><title>Gabarra</title>
<ellipse fill="none" stroke="black" cx="572" cy="-315" rx="51.1176" ry="18.3848"/>
<text text-anchor="middle" x="572" y="-311.4" font-family="Times Roman,serif" font-size="14.00">Gabarra</text>
</g>
<!-- EmpresaMaritima&#45;&gt;Gabarra -->
<g id="edge6" class="edge"><title>EmpresaMaritima&#45;&gt;Gabarra</title>
<path fill="none" stroke="#b695d3" d="M512.477,-391.853C524.428,-376.422 539.704,-356.698 551.788,-341.096"/>
<ellipse fill="none" stroke="#b695d3" cx="509.939" cy="-395.129" rx="4.00002" ry="4.00002"/>
<polygon fill="#b695d3" stroke="#b695d3" points="552.009,-340.812 561.69,-335.661 555.07,-336.859 558.132,-332.906 558.132,-332.906 558.132,-332.906 555.07,-336.859 554.574,-330.15 552.009,-340.812 552.009,-340.812"/>
</g>
<!-- Bax -->
<g id="node15" class="node"><title>Bax</title>
<ellipse fill="none" stroke="black" cx="483" cy="-241" rx="29.9071" ry="18.3848"/>
<text text-anchor="middle" x="483" y="-237.4" font-family="Times Roman,serif" font-size="14.00">Bax</text>
</g>
<!-- EmpresaMaritima&#45;&gt;Bax -->
<g id="edge2" class="edge"><title>EmpresaMaritima&#45;&gt;Bax</title>
<path fill="none" stroke="#b4fcb9" d="M491.488,-390.381C489.638,-357.832 486.521,-302.961 484.622,-269.555"/>
<ellipse fill="none" stroke="#b4fcb9" cx="491.722" cy="-394.504" rx="4" ry="4"/>
<polygon fill="#b4fcb9" stroke="#b4fcb9" points="484.62,-269.503 488.545,-259.263 484.336,-264.511 484.052,-259.519 484.052,-259.519 484.052,-259.519 484.336,-264.511 479.559,-259.774 484.62,-269.503 484.62,-269.503"/>
</g>
<!-- ArriboBauxita -->
<g id="node5" class="node"><title>ArriboBauxita</title>
<ellipse fill="none" stroke="black" cx="525" cy="-93" rx="79.196" ry="18.3848"/>
<text text-anchor="middle" x="525" y="-89.4" font-family="Times Roman,serif" font-size="14.00">ArriboBauxita</text>
</g>
<!-- ArriboBauxita&#45;&gt;DescargaBauxita -->
<g id="edge8" class="edge"><title>ArriboBauxita&#45;&gt;DescargaBauxita</title>
<path fill="none" stroke="#269547" d="M542.9,-68.0079C548.07,-60.7886 553.731,-52.8853 558.968,-45.5735"/>
<ellipse fill="none" stroke="#269547" cx="540.43" cy="-71.4559" rx="4.00002" ry="4.00002"/>
<polygon fill="#269547" stroke="#269547" points="559.043,-45.4681 568.524,-39.9584 561.954,-41.4031 564.866,-37.3382 564.866,-37.3382 564.866,-37.3382 561.954,-41.4031 561.207,-34.7179 559.043,-45.4681 559.043,-45.4681"/>
</g>
<!-- Rol -->
<g id="node6" class="node"><title>Rol</title>
<ellipse fill="none" stroke="black" cx="756" cy="-417" rx="27" ry="18.3848"/>
<text text-anchor="middle" x="756" y="-413.4" font-family="Times Roman,serif" font-size="14.00">Rol</text>
</g>
<!-- User -->
<g id="node7" class="node"><title>User</title>
<ellipse fill="none" stroke="black" cx="756" cy="-315" rx="33.9411" ry="18.3848"/>
<text text-anchor="middle" x="756" y="-311.4" font-family="Times Roman,serif" font-size="14.00">User</text>
</g>
<!-- Rol&#45;&gt;User -->
<g id="edge10" class="edge"><title>Rol&#45;&gt;User</title>
<path fill="none" stroke="#59e1d2" d="M756,-388.054C756,-374.256 756,-357.791 756,-343.987"/>
<polygon fill="#59e1d2" stroke="#59e1d2" points="756,-388.292 751.5,-398.292 756,-393.292 756,-398.292 756,-398.292 756,-398.292 756,-393.292 760.5,-398.292 756,-388.292 756,-388.292"/>
<polygon fill="#59e1d2" stroke="#59e1d2" points="756,-343.59 760.5,-333.59 756,-338.59 756,-333.59 756,-333.59 756,-333.59 756,-338.59 751.5,-333.59 756,-343.59 756,-343.59"/>
</g>
<!-- Empleado -->
<g id="node8" class="node"><title>Empleado</title>
<ellipse fill="none" stroke="black" cx="756" cy="-241" rx="58.1882" ry="18.3848"/>
<text text-anchor="middle" x="756" y="-237.4" font-family="Times Roman,serif" font-size="14.00">Empleado</text>
</g>
<!-- User&#45;&gt;Empleado -->
<g id="edge12" class="edge"><title>User&#45;&gt;Empleado</title>
<path fill="none" stroke="#602ded" d="M749.503,-288.614C749.173,-281.866 749.166,-274.603 749.482,-267.833"/>
<ellipse fill="none" stroke="#602ded" cx="749.798" cy="-292.718" rx="4" ry="4"/>
<ellipse fill="#602ded" stroke="#602ded" cx="749.777" cy="-263.586" rx="4" ry="4"/>
</g>
<!-- Empleado&#45;&gt;User -->
<g id="edge14" class="edge"><title>Empleado&#45;&gt;User</title>
<path fill="none" stroke="#24da39" d="M762.518,-267.833C762.834,-274.603 762.827,-281.866 762.497,-288.614"/>
<ellipse fill="none" stroke="#24da39" cx="762.223" cy="-263.586" rx="4" ry="4"/>
<ellipse fill="#24da39" stroke="#24da39" cx="762.202" cy="-292.718" rx="4" ry="4"/>
</g>
<!-- BaxGabarra -->
<g id="node9" class="node"><title>BaxGabarra</title>
<ellipse fill="none" stroke="black" cx="572" cy="-167" rx="70.0036" ry="18.3848"/>
<text text-anchor="middle" x="572" y="-163.4" font-family="Times Roman,serif" font-size="14.00">BaxGabarra</text>
</g>
<!-- BaxGabarra&#45;&gt;DescargaBauxita -->
<g id="edge18" class="edge"><title>BaxGabarra&#45;&gt;DescargaBauxita</title>
<path fill="none" stroke="#ee87f2" d="M595.338,-142.716C602.432,-133.772 609.319,-123.097 613,-112 618.317,-95.97 617.722,-90.2154 613,-74 609.954,-63.5391 604.249,-53.1684 598.317,-44.2992"/>
<ellipse fill="none" stroke="#ee87f2" cx="592.741" cy="-145.831" rx="4.00002" ry="4.00002"/>
<ellipse fill="#ee87f2" stroke="#ee87f2" cx="595.859" cy="-40.8063" rx="4.00002" ry="4.00002"/>
</g>
<!-- BaxGabarra&#45;&gt;ArriboBauxita -->
<g id="edge16" class="edge"><title>BaxGabarra&#45;&gt;ArriboBauxita</title>
<path fill="none" stroke="#df4e19" d="M555.942,-141.718C551.192,-134.238 545.989,-126.047 541.228,-118.55"/>
<ellipse fill="none" stroke="#df4e19" cx="558.237" cy="-145.331" rx="4.00002" ry="4.00002"/>
<ellipse fill="#df4e19" stroke="#df4e19" cx="538.792" cy="-114.715" rx="4.00002" ry="4.00002"/>
</g>
<!-- Equipo -->
<g id="node10" class="node"><title>Equipo</title>
<ellipse fill="none" stroke="black" cx="870" cy="-315" rx="44.0472" ry="18.3848"/>
<text text-anchor="middle" x="870" y="-311.4" font-family="Times Roman,serif" font-size="14.00">Equipo</text>
</g>
<!-- Remolcador&#45;&gt;Bax -->
<g id="edge20" class="edge"><title>Remolcador&#45;&gt;Bax</title>
<path fill="none" stroke="#624e7c" d="M424.19,-291.604C434.889,-282.398 447.105,-271.886 457.621,-262.837"/>
<ellipse fill="none" stroke="#624e7c" cx="420.85" cy="-294.478" rx="4.00002" ry="4.00002"/>
<polygon fill="#624e7c" stroke="#624e7c" points="457.698,-262.771 468.214,-259.66 461.488,-259.51 465.279,-256.249 465.279,-256.249 465.279,-256.249 461.488,-259.51 462.343,-252.838 457.698,-262.771 457.698,-262.771"/>
</g>
<!-- Ability -->
<g id="node12" class="node"><title>Ability</title>
<polygon fill="none" stroke="black" points="1017,-435 957,-435 957,-399 1017,-399 1017,-435"/>
<text text-anchor="middle" x="987" y="-413.4" font-family="Times Roman,serif" font-size="14.00">Ability</text>
</g>
<!-- TiposEquipo -->
<g id="node13" class="node"><title>TiposEquipo</title>
<ellipse fill="none" stroke="black" cx="870" cy="-417" rx="68.7979" ry="18.3848"/>
<text text-anchor="middle" x="870" y="-413.4" font-family="Times Roman,serif" font-size="14.00">TiposEquipo</text>
</g>
<!-- TiposEquipo&#45;&gt;Equipo -->
<g id="edge22" class="edge"><title>TiposEquipo&#45;&gt;Equipo</title>
<path fill="none" stroke="#95c351" d="M870,-390.015C870,-375.835 870,-358.445 870,-343.98"/>
<ellipse fill="none" stroke="#95c351" cx="870" cy="-394.292" rx="4" ry="4"/>
<polygon fill="#95c351" stroke="#95c351" points="870,-343.59 874.5,-333.59 870,-338.59 870,-333.59 870,-333.59 870,-333.59 870,-338.59 865.5,-333.59 870,-343.59 870,-343.59"/>
</g>
<!-- Gabarra&#45;&gt;DescargaBauxita -->
<g id="edge28" class="edge"><title>Gabarra&#45;&gt;DescargaBauxita</title>
<path fill="none" stroke="#07b056" d="M592.534,-290.806C611.924,-266.243 639.668,-226.202 651,-186 664.787,-137.089 653.231,-118.11 628,-74 621.954,-63.4303 613.572,-53.1801 605.398,-44.4499"/>
<ellipse fill="none" stroke="#07b056" cx="589.813" cy="-294.192" rx="4.00002" ry="4.00002"/>
<polygon fill="#07b056" stroke="#07b056" points="605.311,-44.3609 601.554,-34.0586 601.821,-40.7801 598.331,-37.1994 598.331,-37.1994 598.331,-37.1994 601.821,-40.7801 595.109,-40.3402 605.311,-44.3609 605.311,-44.3609"/>
</g>
<!-- Gabarra&#45;&gt;BaxGabarra -->
<g id="edge24" class="edge"><title>Gabarra&#45;&gt;BaxGabarra</title>
<path fill="none" stroke="#1d029f" d="M572,-288.006C572,-261.917 572,-222.527 572,-195.834"/>
<ellipse fill="none" stroke="#1d029f" cx="572" cy="-292.256" rx="4" ry="4"/>
<polygon fill="#1d029f" stroke="#1d029f" points="572,-195.592 576.5,-185.592 572,-190.592 572,-185.592 572,-185.592 572,-185.592 572,-190.592 567.5,-185.592 572,-195.592 572,-195.592"/>
</g>
<!-- Gabarra&#45;&gt;Bax -->
<g id="edge26" class="edge"><title>Gabarra&#45;&gt;Bax</title>
<path fill="none" stroke="#9f99c0" d="M543.5,-291.304C532.423,-282.093 519.82,-271.614 508.995,-262.614"/>
<polygon fill="#9f99c0" stroke="#9f99c0" points="543.669,-291.444 548.481,-301.297 547.513,-294.64 551.358,-297.837 551.358,-297.837 551.358,-297.837 547.513,-294.64 554.235,-294.377 543.669,-291.444 543.669,-291.444"/>
<polygon fill="#9f99c0" stroke="#9f99c0" points="508.807,-262.458 503.995,-252.604 504.962,-259.261 501.118,-256.064 501.118,-256.064 501.118,-256.064 504.962,-259.261 498.241,-259.524 508.807,-262.458 508.807,-262.458"/>
</g>
<!-- Bax&#45;&gt;DescargaBauxita -->
<g id="edge34" class="edge"><title>Bax&#45;&gt;DescargaBauxita</title>
<path fill="none" stroke="#422b6f" d="M463.683,-215.218C440.173,-180.424 407.097,-117.762 437,-74 446.203,-60.5325 479.644,-47.1915 511.648,-37.022"/>
<polygon fill="#422b6f" stroke="#422b6f" points="463.981,-215.645 466.015,-226.421 466.843,-219.745 469.705,-223.845 469.705,-223.845 469.705,-223.845 466.843,-219.745 473.395,-221.269 463.981,-215.645 463.981,-215.645"/>
<polygon fill="#422b6f" stroke="#422b6f" points="511.953,-36.9277 522.836,-38.2699 516.729,-35.4494 521.506,-33.9711 521.506,-33.9711 521.506,-33.9711 516.729,-35.4494 520.175,-29.6723 511.953,-36.9277 511.953,-36.9277"/>
</g>
<!-- Bax&#45;&gt;ArriboBauxita -->
<g id="edge30" class="edge"><title>Bax&#45;&gt;ArriboBauxita</title>
<path fill="none" stroke="#cb5839" d="M482.939,-214.17C483.599,-195.249 485.932,-169.542 493,-148 496.37,-137.73 501.838,-127.276 507.309,-118.279"/>
<ellipse fill="none" stroke="#cb5839" cx="482.838" cy="-218.348" rx="4" ry="4"/>
<ellipse fill="#cb5839" stroke="#cb5839" cx="509.518" cy="-114.787" rx="4.00002" ry="4.00002"/>
</g>
<!-- Bax&#45;&gt;BaxGabarra -->
<g id="edge32" class="edge"><title>Bax&#45;&gt;BaxGabarra</title>
<path fill="none" stroke="#063392" d="M507.365,-220.741C518.244,-211.696 531.157,-200.959 542.57,-191.47"/>
<ellipse fill="none" stroke="#063392" cx="504.086" cy="-223.468" rx="4.00002" ry="4.00002"/>
<polygon fill="#063392" stroke="#063392" points="542.876,-191.215 553.443,-188.282 546.721,-188.019 550.565,-184.822 550.565,-184.822 550.565,-184.822 546.721,-188.019 547.688,-181.362 542.876,-191.215 542.876,-191.215"/>
</g>
</g>
</svg>
