<?xml version="1.0" encoding="UTF-8" standalone="no"?>
<!DOCTYPE svg PUBLIC "-//W3C//DTD SVG 1.1//EN"
 "http://www.w3.org/Graphics/SVG/1.1/DTD/svg11.dtd">
<!-- Generated by graphviz version 2.26.3 (20100126.1600)
 -->
<!-- Title: models_diagram Pages: 1 -->
<svg width="1275pt" height="2096pt"
 viewBox="0.00 0.00 1275.00 2096.00" xmlns="http://www.w3.org/2000/svg" xmlns:xlink="http://www.w3.org/1999/xlink">
<g id="graph1" class="graph" transform="scale(1 1) rotate(0) translate(4 2092)">
<title>models_diagram</title>
<polygon fill="white" stroke="white" points="-4,5 -4,-2092 1272,-2092 1272,5 -4,5"/>
<!-- _diagram_info -->
<g id="node1" class="node"><title>_diagram_info</title>
<text text-anchor="start" x="8" y="-2037.8" font-family="Times Roman,serif" font-size="13.00">Models diagram</text>
<text text-anchor="start" x="8" y="-2020.8" font-family="Times Roman,serif" font-size="13.00">Date: Sep 24 2012 &#45; 11:11</text>
<text text-anchor="start" x="8" y="-2003.8" font-family="Times Roman,serif" font-size="13.00">Migration version: 20120919144649</text>
<text text-anchor="start" x="8" y="-1986.8" font-family="Times Roman,serif" font-size="13.00">Generated by RailRoady 1.1.0</text>
<text text-anchor="start" x="8" y="-1969.8" font-family="Times Roman,serif" font-size="13.00">http://railroady.prestonlee.com</text>
</g>
<!-- OperationsAd -->
<g id="node2" class="node"><title>OperationsAd</title>
<polygon fill="none" stroke="black" points="268,-1981 268,-2033 378,-2033 378,-1981 268,-1981"/>
<text text-anchor="middle" x="323" y="-2016.4" font-family="Times Roman,serif" font-size="14.00">OperationsAd</text>
<polyline fill="none" stroke="black" points="268,-2007 378,-2007 "/>
<text text-anchor="middle" x="323" y="-1990.4" font-family="Times Roman,serif" font-size="14.00"> </text>
</g>
<!-- DescargaBauxita -->
<g id="node3" class="node"><title>DescargaBauxita</title>
<polyline fill="none" stroke="black" points="478,-1 746,-1 "/>
<path fill="none" stroke="black" d="M746,-1C752,-1 758,-7 758,-13"/>
<polyline fill="none" stroke="black" points="758,-13 758,-293 "/>
<path fill="none" stroke="black" d="M758,-293C758,-299 752,-305 746,-305"/>
<polyline fill="none" stroke="black" points="746,-305 478,-305 "/>
<path fill="none" stroke="black" d="M478,-305C472,-305 466,-299 466,-293"/>
<polyline fill="none" stroke="black" points="466,-293 466,-13 "/>
<path fill="none" stroke="black" d="M466,-13C466,-7 472,-1 478,-1"/>
<text text-anchor="middle" x="612" y="-288.4" font-family="Times Roman,serif" font-size="14.00">DescargaBauxita</text>
<polyline fill="none" stroke="black" points="466,-279 758,-279 "/>
<text text-anchor="start" x="474" y="-262.4" font-family="Times Roman,serif" font-size="14.00">id :integer</text>
<text text-anchor="start" x="474" y="-244.4" font-family="Times Roman,serif" font-size="14.00">activo :boolean</text>
<text text-anchor="start" x="474" y="-226.4" font-family="Times Roman,serif" font-size="14.00">arribo_id :integer</text>
<text text-anchor="start" x="474" y="-208.4" font-family="Times Roman,serif" font-size="14.00">arribo_type :string</text>
<text text-anchor="start" x="474" y="-190.4" font-family="Times Roman,serif" font-size="14.00">equipo_id :integer</text>
<text text-anchor="start" x="474" y="-172.4" font-family="Times Roman,serif" font-size="14.00">gabarra_id :string</text>
<text text-anchor="start" x="474" y="-154.4" font-family="Times Roman,serif" font-size="14.00">tonelaje_descarga_bauxita :decimal</text>
<text text-anchor="start" x="474" y="-136.4" font-family="Times Roman,serif" font-size="14.00">atraque_descarga_bauxita :datetime</text>
<text text-anchor="start" x="474" y="-118.4" font-family="Times Roman,serif" font-size="14.00">inicio_descarga_bauxita :datetime</text>
<text text-anchor="start" x="474" y="-100.4" font-family="Times Roman,serif" font-size="14.00">fin_descarga_bauxita :datetime</text>
<text text-anchor="start" x="474" y="-82.4" font-family="Times Roman,serif" font-size="14.00">desatraque_descarga_bauxita :datetime</text>
<text text-anchor="start" x="474" y="-64.4" font-family="Times Roman,serif" font-size="14.00">creator_id :integer</text>
<text text-anchor="start" x="474" y="-46.4" font-family="Times Roman,serif" font-size="14.00">updater_id :integer</text>
<text text-anchor="start" x="474" y="-28.4" font-family="Times Roman,serif" font-size="14.00">created_at :datetime</text>
<text text-anchor="start" x="474" y="-10.4" font-family="Times Roman,serif" font-size="14.00">updated_at :datetime</text>
</g>
<!-- EmpresaMaritima -->
<g id="node4" class="node"><title>EmpresaMaritima</title>
<polyline fill="none" stroke="black" points="407.5,-1972 538.5,-1972 "/>
<path fill="none" stroke="black" d="M538.5,-1972C544.5,-1972 550.5,-1978 550.5,-1984"/>
<polyline fill="none" stroke="black" points="550.5,-1984 550.5,-2030 "/>
<path fill="none" stroke="black" d="M550.5,-2030C550.5,-2036 544.5,-2042 538.5,-2042"/>
<polyline fill="none" stroke="black" points="538.5,-2042 407.5,-2042 "/>
<path fill="none" stroke="black" d="M407.5,-2042C401.5,-2042 395.5,-2036 395.5,-2030"/>
<polyline fill="none" stroke="black" points="395.5,-2030 395.5,-1984 "/>
<path fill="none" stroke="black" d="M395.5,-1984C395.5,-1978 401.5,-1972 407.5,-1972"/>
<text text-anchor="middle" x="473" y="-2025.4" font-family="Times Roman,serif" font-size="14.00">EmpresaMaritima</text>
<polyline fill="none" stroke="black" points="395.5,-2016 550.5,-2016 "/>
<text text-anchor="start" x="403.5" y="-1999.4" font-family="Times Roman,serif" font-size="14.00">id :text</text>
<text text-anchor="start" x="403.5" y="-1981.4" font-family="Times Roman,serif" font-size="14.00">nombre_emp :string</text>
</g>
<!-- Remolcador -->
<g id="node11" class="node"><title>Remolcador</title>
<polyline fill="none" stroke="black" points="252.5,-1684 433.5,-1684 "/>
<path fill="none" stroke="black" d="M433.5,-1684C439.5,-1684 445.5,-1690 445.5,-1696"/>
<polyline fill="none" stroke="black" points="445.5,-1696 445.5,-1796 "/>
<path fill="none" stroke="black" d="M445.5,-1796C445.5,-1802 439.5,-1808 433.5,-1808"/>
<polyline fill="none" stroke="black" points="433.5,-1808 252.5,-1808 "/>
<path fill="none" stroke="black" d="M252.5,-1808C246.5,-1808 240.5,-1802 240.5,-1796"/>
<polyline fill="none" stroke="black" points="240.5,-1796 240.5,-1696 "/>
<path fill="none" stroke="black" d="M240.5,-1696C240.5,-1690 246.5,-1684 252.5,-1684"/>
<text text-anchor="middle" x="343" y="-1791.4" font-family="Times Roman,serif" font-size="14.00">Remolcador</text>
<polyline fill="none" stroke="black" points="240.5,-1782 445.5,-1782 "/>
<text text-anchor="start" x="248.5" y="-1765.4" font-family="Times Roman,serif" font-size="14.00">id :string</text>
<text text-anchor="start" x="248.5" y="-1747.4" font-family="Times Roman,serif" font-size="14.00">empresa_maritima_id :text</text>
<text text-anchor="start" x="248.5" y="-1729.4" font-family="Times Roman,serif" font-size="14.00">nombre_rem :string</text>
<text text-anchor="start" x="248.5" y="-1711.4" font-family="Times Roman,serif" font-size="14.00">tiempo_mina_planta :string</text>
<text text-anchor="start" x="248.5" y="-1693.4" font-family="Times Roman,serif" font-size="14.00">tiempo_planta_mina :string</text>
</g>
<!-- EmpresaMaritima&#45;&gt;Remolcador -->
<g id="edge4" class="edge"><title>EmpresaMaritima&#45;&gt;Remolcador</title>
<path fill="none" stroke="#70bbd3" d="M451.789,-1964.42C431.971,-1924.63 402.001,-1864.46 378.533,-1817.34"/>
<ellipse fill="none" stroke="#70bbd3" cx="453.684" cy="-1968.22" rx="4.00002" ry="4.00002"/>
<polygon fill="#70bbd3" stroke="#70bbd3" points="378.389,-1817.05 377.959,-1806.09 376.16,-1812.57 373.931,-1808.1 373.931,-1808.1 373.931,-1808.1 376.16,-1812.57 369.903,-1810.11 378.389,-1817.05 378.389,-1817.05"/>
</g>
<!-- Gabarra -->
<g id="node14" class="node"><title>Gabarra</title>
<polyline fill="none" stroke="black" points="512.5,-1711 689.5,-1711 "/>
<path fill="none" stroke="black" d="M689.5,-1711C695.5,-1711 701.5,-1717 701.5,-1723"/>
<polyline fill="none" stroke="black" points="701.5,-1723 701.5,-1769 "/>
<path fill="none" stroke="black" d="M701.5,-1769C701.5,-1775 695.5,-1781 689.5,-1781"/>
<polyline fill="none" stroke="black" points="689.5,-1781 512.5,-1781 "/>
<path fill="none" stroke="black" d="M512.5,-1781C506.5,-1781 500.5,-1775 500.5,-1769"/>
<polyline fill="none" stroke="black" points="500.5,-1769 500.5,-1723 "/>
<path fill="none" stroke="black" d="M500.5,-1723C500.5,-1717 506.5,-1711 512.5,-1711"/>
<text text-anchor="middle" x="601" y="-1764.4" font-family="Times Roman,serif" font-size="14.00">Gabarra</text>
<polyline fill="none" stroke="black" points="500.5,-1755 701.5,-1755 "/>
<text text-anchor="start" x="508.5" y="-1738.4" font-family="Times Roman,serif" font-size="14.00">id :string</text>
<text text-anchor="start" x="508.5" y="-1720.4" font-family="Times Roman,serif" font-size="14.00">empresa_maritima_id :text</text>
</g>
<!-- EmpresaMaritima&#45;&gt;Gabarra -->
<g id="edge6" class="edge"><title>EmpresaMaritima&#45;&gt;Gabarra</title>
<path fill="none" stroke="#97e046" d="M493.836,-1964.51C517.379,-1916.51 555.517,-1838.74 579.379,-1790.09"/>
<ellipse fill="none" stroke="#97e046" cx="492.024" cy="-1968.21" rx="4.00002" ry="4.00002"/>
<polygon fill="#97e046" stroke="#97e046" points="579.404,-1790.04 587.847,-1783.04 581.605,-1785.55 583.807,-1781.06 583.807,-1781.06 583.807,-1781.06 581.605,-1785.55 579.767,-1779.08 579.404,-1790.04 579.404,-1790.04"/>
</g>
<!-- Bax -->
<g id="node15" class="node"><title>Bax</title>
<polyline fill="none" stroke="black" points="382.5,-1117 559.5,-1117 "/>
<path fill="none" stroke="black" d="M559.5,-1117C565.5,-1117 571.5,-1123 571.5,-1129"/>
<polyline fill="none" stroke="black" points="571.5,-1129 571.5,-1265 "/>
<path fill="none" stroke="black" d="M571.5,-1265C571.5,-1271 565.5,-1277 559.5,-1277"/>
<polyline fill="none" stroke="black" points="559.5,-1277 382.5,-1277 "/>
<path fill="none" stroke="black" d="M382.5,-1277C376.5,-1277 370.5,-1271 370.5,-1265"/>
<polyline fill="none" stroke="black" points="370.5,-1265 370.5,-1129 "/>
<path fill="none" stroke="black" d="M370.5,-1129C370.5,-1123 376.5,-1117 382.5,-1117"/>
<text text-anchor="middle" x="471" y="-1260.4" font-family="Times Roman,serif" font-size="14.00">Bax</text>
<polyline fill="none" stroke="black" points="370.5,-1251 571.5,-1251 "/>
<text text-anchor="start" x="378.5" y="-1234.4" font-family="Times Roman,serif" font-size="14.00">id :text</text>
<text text-anchor="start" x="378.5" y="-1216.4" font-family="Times Roman,serif" font-size="14.00">empresa_maritima_id :text</text>
<text text-anchor="start" x="378.5" y="-1198.4" font-family="Times Roman,serif" font-size="14.00">remolcador_id :string</text>
<text text-anchor="start" x="378.5" y="-1180.4" font-family="Times Roman,serif" font-size="14.00">nombre_capitan :string</text>
<text text-anchor="start" x="378.5" y="-1162.4" font-family="Times Roman,serif" font-size="14.00">fecha_hora_zarpe :text</text>
<text text-anchor="start" x="378.5" y="-1144.4" font-family="Times Roman,serif" font-size="14.00">carga_transportar :decimal</text>
<text text-anchor="start" x="378.5" y="-1126.4" font-family="Times Roman,serif" font-size="14.00">cant_gabarras :integer</text>
</g>
<!-- EmpresaMaritima&#45;&gt;Bax -->
<g id="edge2" class="edge"><title>EmpresaMaritima&#45;&gt;Bax</title>
<path fill="none" stroke="#7ef7ca" d="M472.893,-1963.76C472.579,-1836.48 471.652,-1461.19 471.223,-1287.32"/>
<ellipse fill="none" stroke="#7ef7ca" cx="472.903" cy="-1967.94" rx="4" ry="4"/>
<polygon fill="#7ef7ca" stroke="#7ef7ca" points="471.223,-1287.17 475.698,-1277.16 471.21,-1282.17 471.198,-1277.17 471.198,-1277.17 471.198,-1277.17 471.21,-1282.17 466.698,-1277.18 471.223,-1287.17 471.223,-1287.17"/>
</g>
<!-- ArriboBauxita -->
<g id="node5" class="node"><title>ArriboBauxita</title>
<polyline fill="none" stroke="black" points="408,-343 654,-343 "/>
<path fill="none" stroke="black" d="M654,-343C660,-343 666,-349 666,-355"/>
<polyline fill="none" stroke="black" points="666,-355 666,-527 "/>
<path fill="none" stroke="black" d="M666,-527C666,-533 660,-539 654,-539"/>
<polyline fill="none" stroke="black" points="654,-539 408,-539 "/>
<path fill="none" stroke="black" d="M408,-539C402,-539 396,-533 396,-527"/>
<polyline fill="none" stroke="black" points="396,-527 396,-355 "/>
<path fill="none" stroke="black" d="M396,-355C396,-349 402,-343 408,-343"/>
<text text-anchor="middle" x="531" y="-522.4" font-family="Times Roman,serif" font-size="14.00">ArriboBauxita</text>
<polyline fill="none" stroke="black" points="396,-513 666,-513 "/>
<text text-anchor="start" x="404" y="-496.4" font-family="Times Roman,serif" font-size="14.00">id :integer</text>
<text text-anchor="start" x="404" y="-478.4" font-family="Times Roman,serif" font-size="14.00">activo :boolean</text>
<text text-anchor="start" x="404" y="-460.4" font-family="Times Roman,serif" font-size="14.00">bax_id :string</text>
<text text-anchor="start" x="404" y="-442.4" font-family="Times Roman,serif" font-size="14.00">fecha_hora_arribo_bauxita :datetime</text>
<text text-anchor="start" x="404" y="-424.4" font-family="Times Roman,serif" font-size="14.00">creator_id :integer</text>
<text text-anchor="start" x="404" y="-406.4" font-family="Times Roman,serif" font-size="14.00">updater_id :integer</text>
<text text-anchor="start" x="404" y="-388.4" font-family="Times Roman,serif" font-size="14.00">created_at :datetime</text>
<text text-anchor="start" x="404" y="-370.4" font-family="Times Roman,serif" font-size="14.00">updated_at :datetime</text>
<text text-anchor="start" x="404" y="-352.4" font-family="Times Roman,serif" font-size="14.00">descargado :boolean</text>
</g>
<!-- ArriboBauxita&#45;&gt;DescargaBauxita -->
<g id="edge8" class="edge"><title>ArriboBauxita&#45;&gt;DescargaBauxita</title>
<path fill="none" stroke="#63f24b" d="M560.827,-334.949C562.665,-328.414 564.534,-321.767 566.419,-315.067"/>
<ellipse fill="none" stroke="#63f24b" cx="559.732" cy="-338.842" rx="4.00001" ry="4.00001"/>
<polygon fill="#63f24b" stroke="#63f24b" points="566.481,-314.847 573.52,-306.439 567.834,-310.033 569.188,-305.22 569.188,-305.22 569.188,-305.22 567.834,-310.033 564.856,-304.002 566.481,-314.847 566.481,-314.847"/>
</g>
<!-- Rol -->
<g id="node6" class="node"><title>Rol</title>
<polyline fill="none" stroke="black" points="792.5,-1954 933.5,-1954 "/>
<path fill="none" stroke="black" d="M933.5,-1954C939.5,-1954 945.5,-1960 945.5,-1966"/>
<polyline fill="none" stroke="black" points="945.5,-1966 945.5,-2048 "/>
<path fill="none" stroke="black" d="M945.5,-2048C945.5,-2054 939.5,-2060 933.5,-2060"/>
<polyline fill="none" stroke="black" points="933.5,-2060 792.5,-2060 "/>
<path fill="none" stroke="black" d="M792.5,-2060C786.5,-2060 780.5,-2054 780.5,-2048"/>
<polyline fill="none" stroke="black" points="780.5,-2048 780.5,-1966 "/>
<path fill="none" stroke="black" d="M780.5,-1966C780.5,-1960 786.5,-1954 792.5,-1954"/>
<text text-anchor="middle" x="863" y="-2043.4" font-family="Times Roman,serif" font-size="14.00">Rol</text>
<polyline fill="none" stroke="black" points="780.5,-2034 945.5,-2034 "/>
<text text-anchor="start" x="788.5" y="-2017.4" font-family="Times Roman,serif" font-size="14.00">id :integer</text>
<text text-anchor="start" x="788.5" y="-1999.4" font-family="Times Roman,serif" font-size="14.00">name :string</text>
<text text-anchor="start" x="788.5" y="-1981.4" font-family="Times Roman,serif" font-size="14.00">created_at :datetime</text>
<text text-anchor="start" x="788.5" y="-1963.4" font-family="Times Roman,serif" font-size="14.00">updated_at :datetime</text>
</g>
<!-- User -->
<g id="node7" class="node"><title>User</title>
<polyline fill="none" stroke="black" points="755.5,-1603 970.5,-1603 "/>
<path fill="none" stroke="black" d="M970.5,-1603C976.5,-1603 982.5,-1609 982.5,-1615"/>
<polyline fill="none" stroke="black" points="982.5,-1615 982.5,-1877 "/>
<path fill="none" stroke="black" d="M982.5,-1877C982.5,-1883 976.5,-1889 970.5,-1889"/>
<polyline fill="none" stroke="black" points="970.5,-1889 755.5,-1889 "/>
<path fill="none" stroke="black" d="M755.5,-1889C749.5,-1889 743.5,-1883 743.5,-1877"/>
<polyline fill="none" stroke="black" points="743.5,-1877 743.5,-1615 "/>
<path fill="none" stroke="black" d="M743.5,-1615C743.5,-1609 749.5,-1603 755.5,-1603"/>
<text text-anchor="middle" x="863" y="-1872.4" font-family="Times Roman,serif" font-size="14.00">User</text>
<polyline fill="none" stroke="black" points="743.5,-1863 982.5,-1863 "/>
<text text-anchor="start" x="751.5" y="-1846.4" font-family="Times Roman,serif" font-size="14.00">id :integer</text>
<text text-anchor="start" x="751.5" y="-1828.4" font-family="Times Roman,serif" font-size="14.00">estado_id :integer</text>
<text text-anchor="start" x="751.5" y="-1810.4" font-family="Times Roman,serif" font-size="14.00">login :string</text>
<text text-anchor="start" x="751.5" y="-1792.4" font-family="Times Roman,serif" font-size="14.00">ldap_attributes :string</text>
<text text-anchor="start" x="751.5" y="-1774.4" font-family="Times Roman,serif" font-size="14.00">remember_token :string</text>
<text text-anchor="start" x="751.5" y="-1756.4" font-family="Times Roman,serif" font-size="14.00">remember_created_at :datetime</text>
<text text-anchor="start" x="751.5" y="-1738.4" font-family="Times Roman,serif" font-size="14.00">sign_in_count :integer</text>
<text text-anchor="start" x="751.5" y="-1720.4" font-family="Times Roman,serif" font-size="14.00">current_sign_in_at :datetime</text>
<text text-anchor="start" x="751.5" y="-1702.4" font-family="Times Roman,serif" font-size="14.00">last_sign_in_at :datetime</text>
<text text-anchor="start" x="751.5" y="-1684.4" font-family="Times Roman,serif" font-size="14.00">current_sign_in_ip :string</text>
<text text-anchor="start" x="751.5" y="-1666.4" font-family="Times Roman,serif" font-size="14.00">last_sign_in_ip :string</text>
<text text-anchor="start" x="751.5" y="-1648.4" font-family="Times Roman,serif" font-size="14.00">created_at :datetime</text>
<text text-anchor="start" x="751.5" y="-1630.4" font-family="Times Roman,serif" font-size="14.00">updated_at :datetime</text>
<text text-anchor="start" x="751.5" y="-1612.4" font-family="Times Roman,serif" font-size="14.00">encrypted_password :string</text>
</g>
<!-- Rol&#45;&gt;User -->
<g id="edge10" class="edge"><title>Rol&#45;&gt;User</title>
<path fill="none" stroke="#936242" d="M863,-1943.74C863,-1930.03 863,-1914.96 863,-1899.45"/>
<polygon fill="#936242" stroke="#936242" points="863,-1943.87 858.5,-1953.87 863,-1948.87 863,-1953.87 863,-1953.87 863,-1953.87 863,-1948.87 867.5,-1953.87 863,-1943.87 863,-1943.87"/>
<polygon fill="#936242" stroke="#936242" points="863,-1899.19 867.5,-1889.19 863,-1894.19 863,-1889.19 863,-1889.19 863,-1889.19 863,-1894.19 858.5,-1889.19 863,-1899.19 863,-1899.19"/>
</g>
<!-- Empleado -->
<g id="node8" class="node"><title>Empleado</title>
<polyline fill="none" stroke="black" points="771.5,-829 954.5,-829 "/>
<path fill="none" stroke="black" d="M954.5,-829C960.5,-829 966.5,-835 966.5,-841"/>
<polyline fill="none" stroke="black" points="966.5,-841 966.5,-1553 "/>
<path fill="none" stroke="black" d="M966.5,-1553C966.5,-1559 960.5,-1565 954.5,-1565"/>
<polyline fill="none" stroke="black" points="954.5,-1565 771.5,-1565 "/>
<path fill="none" stroke="black" d="M771.5,-1565C765.5,-1565 759.5,-1559 759.5,-1553"/>
<polyline fill="none" stroke="black" points="759.5,-1553 759.5,-841 "/>
<path fill="none" stroke="black" d="M759.5,-841C759.5,-835 765.5,-829 771.5,-829"/>
<text text-anchor="middle" x="863" y="-1548.4" font-family="Times Roman,serif" font-size="14.00">Empleado</text>
<polyline fill="none" stroke="black" points="759.5,-1539 966.5,-1539 "/>
<text text-anchor="start" x="767.5" y="-1522.4" font-family="Times Roman,serif" font-size="14.00">id :integer</text>
<text text-anchor="start" x="767.5" y="-1504.4" font-family="Times Roman,serif" font-size="14.00">area_personal :string</text>
<text text-anchor="start" x="767.5" y="-1486.4" font-family="Times Roman,serif" font-size="14.00">cedula :string</text>
<text text-anchor="start" x="767.5" y="-1468.4" font-family="Times Roman,serif" font-size="14.00">apellidos :string</text>
<text text-anchor="start" x="767.5" y="-1450.4" font-family="Times Roman,serif" font-size="14.00">nombres :string</text>
<text text-anchor="start" x="767.5" y="-1432.4" font-family="Times Roman,serif" font-size="14.00">cod_unidad :integer</text>
<text text-anchor="start" x="767.5" y="-1414.4" font-family="Times Roman,serif" font-size="14.00">descrip_unidad :string</text>
<text text-anchor="start" x="767.5" y="-1396.4" font-family="Times Roman,serif" font-size="14.00">cod_gerencia :integer</text>
<text text-anchor="start" x="767.5" y="-1378.4" font-family="Times Roman,serif" font-size="14.00">descrip_gerencia :string</text>
<text text-anchor="start" x="767.5" y="-1360.4" font-family="Times Roman,serif" font-size="14.00">cod_cargo :integer</text>
<text text-anchor="start" x="767.5" y="-1342.4" font-family="Times Roman,serif" font-size="14.00">descripcion_cargo :string</text>
<text text-anchor="start" x="767.5" y="-1324.4" font-family="Times Roman,serif" font-size="14.00">nacionalidad :string</text>
<text text-anchor="start" x="767.5" y="-1306.4" font-family="Times Roman,serif" font-size="14.00">grupo_sanguineo :string</text>
<text text-anchor="start" x="767.5" y="-1288.4" font-family="Times Roman,serif" font-size="14.00">factor_sanguineo :string</text>
<text text-anchor="start" x="767.5" y="-1270.4" font-family="Times Roman,serif" font-size="14.00">codigo_operadora :string</text>
<text text-anchor="start" x="767.5" y="-1252.4" font-family="Times Roman,serif" font-size="14.00">extension_telef_trab :string</text>
<text text-anchor="start" x="767.5" y="-1234.4" font-family="Times Roman,serif" font-size="14.00">correo_electronico :string</text>
<text text-anchor="start" x="767.5" y="-1216.4" font-family="Times Roman,serif" font-size="14.00">fecha_nacimiento :date</text>
<text text-anchor="start" x="767.5" y="-1198.4" font-family="Times Roman,serif" font-size="14.00">amparado :string</text>
<text text-anchor="start" x="767.5" y="-1180.4" font-family="Times Roman,serif" font-size="14.00">fecha_ingreso :date</text>
<text text-anchor="start" x="767.5" y="-1162.4" font-family="Times Roman,serif" font-size="14.00">cod_centro_costo :integer</text>
<text text-anchor="start" x="767.5" y="-1144.4" font-family="Times Roman,serif" font-size="14.00">sexo :string</text>
<text text-anchor="start" x="767.5" y="-1126.4" font-family="Times Roman,serif" font-size="14.00">cod_estatus_trab :string</text>
<text text-anchor="start" x="767.5" y="-1108.4" font-family="Times Roman,serif" font-size="14.00">descrip_estatus :string</text>
<text text-anchor="start" x="767.5" y="-1090.4" font-family="Times Roman,serif" font-size="14.00">cod_estado_civil :string</text>
<text text-anchor="start" x="767.5" y="-1072.4" font-family="Times Roman,serif" font-size="14.00">descrip_estado_civil :string</text>
<text text-anchor="start" x="767.5" y="-1054.4" font-family="Times Roman,serif" font-size="14.00">direccion_hab :string</text>
<text text-anchor="start" x="767.5" y="-1036.4" font-family="Times Roman,serif" font-size="14.00">estado_hab :string</text>
<text text-anchor="start" x="767.5" y="-1018.4" font-family="Times Roman,serif" font-size="14.00">ciudad_hab :string</text>
<text text-anchor="start" x="767.5" y="-1000.4" font-family="Times Roman,serif" font-size="14.00">telefono_hab :string</text>
<text text-anchor="start" x="767.5" y="-982.4" font-family="Times Roman,serif" font-size="14.00">nivel_educativo :string</text>
<text text-anchor="start" x="767.5" y="-964.4" font-family="Times Roman,serif" font-size="14.00">mano_dominante :string</text>
<text text-anchor="start" x="767.5" y="-946.4" font-family="Times Roman,serif" font-size="14.00">cant_hijos :integer</text>
<text text-anchor="start" x="767.5" y="-928.4" font-family="Times Roman,serif" font-size="14.00">horario :string</text>
<text text-anchor="start" x="767.5" y="-910.4" font-family="Times Roman,serif" font-size="14.00">fecha_egreso :date</text>
<text text-anchor="start" x="767.5" y="-892.4" font-family="Times Roman,serif" font-size="14.00">descrip_egreso :string</text>
<text text-anchor="start" x="767.5" y="-874.4" font-family="Times Roman,serif" font-size="14.00">hora_actualizacion :string</text>
<text text-anchor="start" x="767.5" y="-856.4" font-family="Times Roman,serif" font-size="14.00">area_pers_ant :string</text>
<text text-anchor="start" x="767.5" y="-838.4" font-family="Times Roman,serif" font-size="14.00">grupo_trabajo :string</text>
</g>
<!-- User&#45;&gt;Empleado -->
<g id="edge12" class="edge"><title>User&#45;&gt;Empleado</title>
<path fill="none" stroke="#c22374" d="M856.896,-1594.79C856.818,-1587.86 856.747,-1580.8 856.684,-1573.63"/>
<ellipse fill="none" stroke="#c22374" cx="856.943" cy="-1598.83" rx="4" ry="4"/>
<ellipse fill="#c22374" stroke="#c22374" cx="856.646" cy="-1569.16" rx="4" ry="4"/>
</g>
<!-- Empleado&#45;&gt;User -->
<g id="edge14" class="edge"><title>Empleado&#45;&gt;User</title>
<path fill="none" stroke="#6c356a" d="M869.316,-1573.63C869.253,-1580.8 869.182,-1587.86 869.104,-1594.79"/>
<ellipse fill="none" stroke="#6c356a" cx="869.354" cy="-1569.16" rx="4" ry="4"/>
<ellipse fill="#6c356a" stroke="#6c356a" cx="869.057" cy="-1598.83" rx="4" ry="4"/>
</g>
<!-- BaxGabarra -->
<g id="node9" class="node"><title>BaxGabarra</title>
<polyline fill="none" stroke="black" points="510,-577 692,-577 "/>
<path fill="none" stroke="black" d="M692,-577C698,-577 704,-583 704,-589"/>
<polyline fill="none" stroke="black" points="704,-589 704,-779 "/>
<path fill="none" stroke="black" d="M704,-779C704,-785 698,-791 692,-791"/>
<polyline fill="none" stroke="black" points="692,-791 510,-791 "/>
<path fill="none" stroke="black" d="M510,-791C504,-791 498,-785 498,-779"/>
<polyline fill="none" stroke="black" points="498,-779 498,-589 "/>
<path fill="none" stroke="black" d="M498,-589C498,-583 504,-577 510,-577"/>
<text text-anchor="middle" x="601" y="-774.4" font-family="Times Roman,serif" font-size="14.00">BaxGabarra</text>
<polyline fill="none" stroke="black" points="498,-765 704,-765 "/>
<text text-anchor="start" x="506" y="-748.4" font-family="Times Roman,serif" font-size="14.00">bax_id :text</text>
<text text-anchor="start" x="506" y="-730.4" font-family="Times Roman,serif" font-size="14.00">gabarra_id :string</text>
<text text-anchor="start" x="506" y="-712.4" font-family="Times Roman,serif" font-size="14.00">tone_transportada :decimal</text>
<text text-anchor="start" x="506" y="-694.4" font-family="Times Roman,serif" font-size="14.00">sio2r :decimal</text>
<text text-anchor="start" x="506" y="-676.4" font-family="Times Roman,serif" font-size="14.00">sio2q :decimal</text>
<text text-anchor="start" x="506" y="-658.4" font-family="Times Roman,serif" font-size="14.00">al2o3 :decimal</text>
<text text-anchor="start" x="506" y="-640.4" font-family="Times Roman,serif" font-size="14.00">fe2o3 :decimal</text>
<text text-anchor="start" x="506" y="-622.4" font-family="Times Roman,serif" font-size="14.00">humedad :decimal</text>
<text text-anchor="start" x="506" y="-604.4" font-family="Times Roman,serif" font-size="14.00">muestreo :string</text>
<text text-anchor="start" x="506" y="-586.4" font-family="Times Roman,serif" font-size="14.00">tipo_carga :string</text>
</g>
<!-- BaxGabarra&#45;&gt;DescargaBauxita -->
<g id="edge18" class="edge"><title>BaxGabarra&#45;&gt;DescargaBauxita</title>
<path fill="none" stroke="#37de91" d="M665.901,-569.131C669.534,-559.481 672.653,-549.701 675,-540 695.691,-454.467 689.096,-428.864 675,-342 673.448,-332.437 671.481,-322.703 669.21,-312.951"/>
<ellipse fill="none" stroke="#37de91" cx="664.342" cy="-573.115" rx="4.00001" ry="4.00001"/>
<ellipse fill="#37de91" stroke="#37de91" cx="668.262" cy="-309.018" rx="4.00001" ry="4.00001"/>
</g>
<!-- BaxGabarra&#45;&gt;ArriboBauxita -->
<g id="edge16" class="edge"><title>BaxGabarra&#45;&gt;ArriboBauxita</title>
<path fill="none" stroke="#a3e5fc" d="M567.816,-568.803C565.725,-561.547 563.627,-554.261 561.549,-547.049"/>
<ellipse fill="none" stroke="#a3e5fc" cx="568.986" cy="-572.866" rx="4.00001" ry="4.00001"/>
<ellipse fill="#a3e5fc" stroke="#a3e5fc" cx="560.412" cy="-543.101" rx="4.00001" ry="4.00001"/>
</g>
<!-- Equipo -->
<g id="node10" class="node"><title>Equipo</title>
<polyline fill="none" stroke="black" points="1012,-1657 1162,-1657 "/>
<path fill="none" stroke="black" d="M1162,-1657C1168,-1657 1174,-1663 1174,-1669"/>
<polyline fill="none" stroke="black" points="1174,-1669 1174,-1823 "/>
<path fill="none" stroke="black" d="M1174,-1823C1174,-1829 1168,-1835 1162,-1835"/>
<polyline fill="none" stroke="black" points="1162,-1835 1012,-1835 "/>
<path fill="none" stroke="black" d="M1012,-1835C1006,-1835 1000,-1829 1000,-1823"/>
<polyline fill="none" stroke="black" points="1000,-1823 1000,-1669 "/>
<path fill="none" stroke="black" d="M1000,-1669C1000,-1663 1006,-1657 1012,-1657"/>
<text text-anchor="middle" x="1087" y="-1818.4" font-family="Times Roman,serif" font-size="14.00">Equipo</text>
<polyline fill="none" stroke="black" points="1000,-1809 1174,-1809 "/>
<text text-anchor="start" x="1008" y="-1792.4" font-family="Times Roman,serif" font-size="14.00">id :integer</text>
<text text-anchor="start" x="1008" y="-1774.4" font-family="Times Roman,serif" font-size="14.00">tipo_equipo_id :integer</text>
<text text-anchor="start" x="1008" y="-1756.4" font-family="Times Roman,serif" font-size="14.00">nombre_equipo :string</text>
<text text-anchor="start" x="1008" y="-1738.4" font-family="Times Roman,serif" font-size="14.00">creator_id :integer</text>
<text text-anchor="start" x="1008" y="-1720.4" font-family="Times Roman,serif" font-size="14.00">created_at :datetime</text>
<text text-anchor="start" x="1008" y="-1702.4" font-family="Times Roman,serif" font-size="14.00">updated_at :datetime</text>
<text text-anchor="start" x="1008" y="-1684.4" font-family="Times Roman,serif" font-size="14.00">activo :boolean</text>
<text text-anchor="start" x="1008" y="-1666.4" font-family="Times Roman,serif" font-size="14.00">updater_id :integer</text>
</g>
<!-- Remolcador&#45;&gt;Bax -->
<g id="edge20" class="edge"><title>Remolcador&#45;&gt;Bax</title>
<path fill="none" stroke="#4510a9" d="M359.314,-1676.03C382.389,-1577.06 424.571,-1396.14 449.971,-1287.2"/>
<ellipse fill="none" stroke="#4510a9" cx="358.405" cy="-1679.93" rx="4.00001" ry="4.00001"/>
<polygon fill="#4510a9" stroke="#4510a9" points="450.029,-1286.95 456.682,-1278.23 451.164,-1282.08 452.299,-1277.21 452.299,-1277.21 452.299,-1277.21 451.164,-1282.08 447.917,-1276.19 450.029,-1286.95 450.029,-1286.95"/>
</g>
<!-- Ability -->
<g id="node12" class="node"><title>Ability</title>
<polygon fill="none" stroke="black" points="1207,-1981 1207,-2033 1267,-2033 1267,-1981 1207,-1981"/>
<text text-anchor="middle" x="1237" y="-2016.4" font-family="Times Roman,serif" font-size="14.00">Ability</text>
<polyline fill="none" stroke="black" points="1207,-2007 1267,-2007 "/>
<text text-anchor="middle" x="1237" y="-1990.4" font-family="Times Roman,serif" font-size="14.00"> </text>
</g>
<!-- TiposEquipo -->
<g id="node13" class="node"><title>TiposEquipo</title>
<polyline fill="none" stroke="black" points="996.5,-1927 1177.5,-1927 "/>
<path fill="none" stroke="black" d="M1177.5,-1927C1183.5,-1927 1189.5,-1933 1189.5,-1939"/>
<polyline fill="none" stroke="black" points="1189.5,-1939 1189.5,-2075 "/>
<path fill="none" stroke="black" d="M1189.5,-2075C1189.5,-2081 1183.5,-2087 1177.5,-2087"/>
<polyline fill="none" stroke="black" points="1177.5,-2087 996.5,-2087 "/>
<path fill="none" stroke="black" d="M996.5,-2087C990.5,-2087 984.5,-2081 984.5,-2075"/>
<polyline fill="none" stroke="black" points="984.5,-2075 984.5,-1939 "/>
<path fill="none" stroke="black" d="M984.5,-1939C984.5,-1933 990.5,-1927 996.5,-1927"/>
<text text-anchor="middle" x="1087" y="-2070.4" font-family="Times Roman,serif" font-size="14.00">TiposEquipo</text>
<polyline fill="none" stroke="black" points="984.5,-2061 1189.5,-2061 "/>
<text text-anchor="start" x="992.5" y="-2044.4" font-family="Times Roman,serif" font-size="14.00">id :integer</text>
<text text-anchor="start" x="992.5" y="-2026.4" font-family="Times Roman,serif" font-size="14.00">activo :boolean</text>
<text text-anchor="start" x="992.5" y="-2008.4" font-family="Times Roman,serif" font-size="14.00">nombre_tipo_equipo :string</text>
<text text-anchor="start" x="992.5" y="-1990.4" font-family="Times Roman,serif" font-size="14.00">creator_id :integer</text>
<text text-anchor="start" x="992.5" y="-1972.4" font-family="Times Roman,serif" font-size="14.00">updater_id :integer</text>
<text text-anchor="start" x="992.5" y="-1954.4" font-family="Times Roman,serif" font-size="14.00">created_at :datetime</text>
<text text-anchor="start" x="992.5" y="-1936.4" font-family="Times Roman,serif" font-size="14.00">updated_at :datetime</text>
</g>
<!-- TiposEquipo&#45;&gt;Equipo -->
<g id="edge22" class="edge"><title>TiposEquipo&#45;&gt;Equipo</title>
<path fill="none" stroke="#f21e12" d="M1087,-1918.64C1087,-1895.05 1087,-1869.41 1087,-1845.28"/>
<ellipse fill="none" stroke="#f21e12" cx="1087" cy="-1922.92" rx="4" ry="4"/>
<polygon fill="#f21e12" stroke="#f21e12" points="1087,-1845.04 1091.5,-1835.04 1087,-1840.04 1087,-1835.04 1087,-1835.04 1087,-1835.04 1087,-1840.04 1082.5,-1835.04 1087,-1845.04 1087,-1845.04"/>
</g>
<!-- Gabarra&#45;&gt;DescargaBauxita -->
<g id="edge28" class="edge"><title>Gabarra&#45;&gt;DescargaBauxita</title>
<path fill="none" stroke="#a324a3" d="M609.424,-1702.37C638.205,-1548.58 729.947,-1017.26 713,-576 708.997,-471.77 720.329,-443.185 695,-342 692.739,-332.969 690.083,-323.825 687.134,-314.684"/>
<ellipse fill="none" stroke="#a324a3" cx="608.599" cy="-1706.75" rx="4.00001" ry="4.00001"/>
<polygon fill="#a324a3" stroke="#a324a3" points="687.123,-314.65 688.229,-303.74 685.542,-309.907 683.96,-305.164 683.96,-305.164 683.96,-305.164 685.542,-309.907 679.691,-306.587 687.123,-314.65 687.123,-314.65"/>
</g>
<!-- Gabarra&#45;&gt;BaxGabarra -->
<g id="edge24" class="edge"><title>Gabarra&#45;&gt;BaxGabarra</title>
<path fill="none" stroke="#accdda" d="M601,-1702.59C601,-1550.05 601,-1035.18 601,-801.317"/>
<ellipse fill="none" stroke="#accdda" cx="601" cy="-1706.97" rx="4" ry="4"/>
<polygon fill="#accdda" stroke="#accdda" points="601,-801.076 605.5,-791.076 601,-796.076 601,-791.076 601,-791.076 601,-791.076 601,-796.076 596.5,-791.076 601,-801.076 601,-801.076"/>
</g>
<!-- Gabarra&#45;&gt;Bax -->
<g id="edge26" class="edge"><title>Gabarra&#45;&gt;Bax</title>
<path fill="none" stroke="#538888" d="M590.321,-1700.9C568.937,-1610.59 520.504,-1406.06 492.359,-1287.2"/>
<polygon fill="#538888" stroke="#538888" points="590.366,-1701.09 588.291,-1711.86 591.518,-1705.96 592.67,-1710.82 592.67,-1710.82 592.67,-1710.82 591.518,-1705.96 597.049,-1709.79 590.366,-1701.09 590.366,-1701.09"/>
<polygon fill="#538888" stroke="#538888" points="492.339,-1287.12 494.414,-1276.35 491.187,-1282.25 490.035,-1277.39 490.035,-1277.39 490.035,-1277.39 491.187,-1282.25 485.656,-1278.42 492.339,-1287.12 492.339,-1287.12"/>
</g>
<!-- Bax&#45;&gt;DescargaBauxita -->
<g id="edge34" class="edge"><title>Bax&#45;&gt;DescargaBauxita</title>
<path fill="none" stroke="#f20446" d="M433.467,-1107.57C371.783,-946.188 267.17,-599.155 387,-342 403.22,-307.193 429.354,-276.514 458.17,-250.546"/>
<polygon fill="#f20446" stroke="#f20446" points="433.502,-1107.66 432.901,-1118.61 435.301,-1112.33 437.1,-1116.99 437.1,-1116.99 437.1,-1116.99 435.301,-1112.33 441.298,-1115.37 433.502,-1107.66 433.502,-1107.66"/>
<polygon fill="#f20446" stroke="#f20446" points="458.446,-250.303 468.927,-247.076 462.2,-247 465.954,-243.697 465.954,-243.697 465.954,-243.697 462.2,-247 462.982,-240.319 458.446,-250.303 458.446,-250.303"/>
</g>
<!-- Bax&#45;&gt;ArriboBauxita -->
<g id="edge30" class="edge"><title>Bax&#45;&gt;ArriboBauxita</title>
<path fill="none" stroke="#786776" d="M466.062,-1108.74C460.986,-987.677 457.685,-763.716 489,-576 490.593,-566.448 492.693,-556.634 495.106,-546.865"/>
<ellipse fill="none" stroke="#786776" cx="466.242" cy="-1112.93" rx="4" ry="4"/>
<ellipse fill="#786776" stroke="#786776" cx="496.113" cy="-542.922" rx="4.00001" ry="4.00001"/>
</g>
<!-- Bax&#45;&gt;BaxGabarra -->
<g id="edge32" class="edge"><title>Bax&#45;&gt;BaxGabarra</title>
<path fill="none" stroke="#37d50f" d="M493.299,-1109.01C514.841,-1024 547.608,-894.693 571.342,-801.035"/>
<ellipse fill="none" stroke="#37d50f" cx="492.295" cy="-1112.97" rx="4.00001" ry="4.00001"/>
<polygon fill="#37d50f" stroke="#37d50f" points="571.37,-800.923 578.189,-792.335 572.599,-796.076 573.827,-791.229 573.827,-791.229 573.827,-791.229 572.599,-796.076 569.465,-790.124 571.37,-800.923 571.37,-800.923"/>
</g>
</g>
</svg>
